# Blender v2.68 (sub 2) OBJ File: ''
# www.blender.org
v -0.391674 2.970123 -0.228642
v -0.000000 0.000000 0.000000
v 0.172355 3.094166 -0.320859
v 0.276385 3.046785 -0.894402
v -0.223349 2.893460 -1.156654
v -0.636232 2.846080 -0.745191
v -2.281779 6.232329 2.641455
v -0.821623 6.553452 2.402724
v -0.552308 6.430794 0.917936
v -1.846019 6.033864 0.239018
v -2.914890 5.911207 1.304212
v -4.852064 11.293457 1.864089
v -0.327870 11.687240 1.190818
v 0.451924 11.536830 -3.330907
v -3.590332 11.050085 -5.452214
v -6.868376 10.899673 -2.241529
v -7.632322 15.426033 6.033795
v 2.648309 14.359926 4.492043
v 4.430026 14.767148 -5.797011
v -4.749447 16.084930 -10.614243
v -12.204385 16.492144 -3.302399
v -10.809141 21.182268 12.877067
v 8.271216 22.136784 10.072714
v 11.531034 21.772200 -8.955588
v -5.534648 20.592356 -17.911369
v -19.341637 20.227762 -4.418043
v -17.420433 27.608816 25.393988
v 18.141422 26.777445 20.192509
v 24.196270 27.095015 -15.242371
v -7.623495 28.122652 -31.940842
v -33.344028 28.440205 -6.826185
v -25.510618 43.362587 42.971466
v 32.454613 40.343048 34.447533
v 42.361443 41.496437 -23.364820
v -9.481047 45.228790 -50.570873
v -51.428280 46.382137 -9.572790
vt 0.586155 0.552972
vt 0.590620 0.576154
vt 0.577902 0.561219
vt 0.582790 0.571572
vt 0.594065 0.569723
vt 0.596144 0.558228
vt 0.532353 0.602293
vt 0.545009 0.629094
vt 0.493631 0.613514
vt 0.553719 0.580945
vt 0.579579 0.594552
vt 0.574196 0.624310
vt 0.453326 0.531229
vt 0.438055 0.697084
vt 0.599653 0.509396
vt 0.584066 0.600021
vt 0.203995 0.487607
vt 0.346663 0.509967
vt 0.374553 0.834238
vt 0.518852 0.466880
vt 0.495682 0.363422
vt 0.679173 0.459970
vt 0.643557 0.666184
vt -0.075903 0.439343
vt 0.479986 0.217172
vt 0.821117 0.396665
vt 0.755955 0.778033
vt 0.242398 1.085104
vt -0.437394 0.384295
vt 0.438232 -0.064008
vt 1.074286 0.270665
vt 0.953254 0.980855
vt 0.401101 -0.437394
vt 1.437394 0.107873
vt 0.080681 1.437394
vt 1.239364 1.266556
vn -0.079226 -0.031465 -0.996338
vn 0.056185 -0.974395 0.217627
vn -0.898679 -0.314188 -0.306009
vn -0.316599 -0.444899 0.837703
vn 0.817133 -0.069277 0.572222
vn 0.836207 0.151402 -0.527055
vn -0.781701 -0.619678 0.069948
vn -0.286966 -0.351451 0.891110
vn -0.408551 -0.582568 0.702597
vn -0.181371 -0.350749 -0.918699
vn 0.971923 -0.018342 -0.234443
vn 0.611499 -0.105258 0.784173
vn -0.681143 -0.716666 -0.149510
vn -0.344066 -0.766198 0.542711
vn 0.620167 -0.728141 -0.291818
vn 0.615467 -0.579028 0.534684
vn -0.482223 -0.873440 -0.067232
vn -0.567095 -0.817621 -0.099246
vn -0.204932 -0.877285 0.433973
vn -0.086459 -0.754845 -0.650136
vn -0.113742 -0.795221 -0.595508
vn 0.560564 -0.757347 -0.334880
vn 0.438459 -0.759453 0.480544
vn -0.618824 -0.777367 -0.112857
vn -0.042116 -0.873257 -0.485397
vn 0.417066 -0.885891 -0.203009
vn 0.311563 -0.892972 0.324809
vn -0.290567 -0.827906 0.479659
vn -0.682363 -0.719504 -0.129002
vn -0.109714 -0.796991 -0.593890
vn 0.445753 -0.857265 -0.257546
vn 0.327464 -0.875057 0.356395
vn -0.130711 -0.741874 -0.657643
vn 0.506912 -0.809992 -0.294839
vn -0.332072 -0.777154 0.534532
vn 0.378094 -0.829920 0.410138
s 1
f 5/1/1 2/2/2 6/3/3
f 1/4/4 2/2/2 3/5/5
f 4/6/6 2/2/2 5/1/1
f 6/3/3 2/2/2 1/4/4
f 3/5/5 2/2/2 4/6/6
f 6/3/3 1/4/4 11/7/7
f 11/7/7 7/8/8 12/9/9
f 5/1/1 6/3/3 10/10/10
f 4/6/6 5/1/1 10/10/10
f 3/5/5 4/6/6 9/11/11
f 1/4/4 3/5/5 8/12/12
f 16/13/13 12/9/9 17/14/14
f 10/10/10 11/7/7 16/13/13
f 9/11/11 10/10/10 14/15/15
f 8/12/12 9/11/11 13/16/16
f 7/8/8 8/12/12 13/16/16
f 26/17/17 21/18/18 22/19/19
f 15/20/20 16/13/13 20/21/21
f 14/15/15 15/20/20 19/22/22
f 13/16/16 14/15/15 18/23/23
f 12/9/9 13/16/16 18/23/23
f 26/17/17 22/19/19 31/24/24
f 20/21/21 21/18/18 25/25/25
f 19/22/22 20/21/21 24/26/26
f 18/23/23 19/22/22 23/27/27
f 22/19/19 17/14/14 23/27/27
f 31/24/24 27/28/28 36/29/29
f 30/30/30 25/25/25 31/24/24
f 29/31/31 24/26/26 30/30/30
f 28/32/32 23/27/27 29/31/31
f 22/19/19 23/27/27 27/28/28
f 30/30/30 31/24/24 36/29/29
f 29/31/31 30/30/30 35/33/33
f 28/32/32 29/31/31 34/34/34
f 27/28/28 28/32/32 32/35/35
f 1/4/4 7/8/8 11/7/7
f 16/13/13 11/7/7 12/9/9
f 6/3/3 11/7/7 10/10/10
f 9/11/11 4/6/6 10/10/10
f 8/12/12 3/5/5 9/11/11
f 7/8/8 1/4/4 8/12/12
f 21/18/18 16/13/13 17/14/14
f 15/20/20 10/10/10 16/13/13
f 10/10/10 15/20/20 14/15/15
f 9/11/11 14/15/15 13/16/16
f 12/9/9 7/8/8 13/16/16
f 25/25/25 26/17/17 31/24/24
f 16/13/13 21/18/18 20/21/21
f 15/20/20 20/21/21 19/22/22
f 14/15/15 19/22/22 18/23/23
f 17/14/14 12/9/9 18/23/23
f 20/21/21 25/25/25 24/26/26
f 23/27/27 28/32/32 27/28/28
f 23/27/27 24/26/26 29/31/31
f 21/18/18 17/14/14 22/19/19
f 27/28/28 32/35/35 36/29/29
f 19/22/22 24/26/26 23/27/27
f 22/19/19 27/28/28 31/24/24
f 21/18/18 26/17/17 25/25/25
f 17/14/14 18/23/23 23/27/27
f 35/33/33 30/30/30 36/29/29
f 34/34/34 29/31/31 35/33/33
f 33/36/36 28/32/32 34/34/34
f 28/32/32 33/36/36 32/35/35
f 24/26/26 25/25/25 30/30/30
