# Blender v2.68 (sub 2) OBJ File: ''
# www.blender.org
v 0.000004 1.073768 -15.668045
v 0.000004 2.323880 -15.668045
v 5.995901 1.230440 -14.475386
v 5.995901 2.698049 -14.475386
v 8.704700 1.084138 -13.027503
v 8.704700 2.213329 -13.027503
v 11.078980 0.938319 -11.078980
v 11.078980 1.826888 -11.078980
v 13.027503 1.113486 -8.704700
v 13.027503 2.174077 -8.704700
v 14.475387 1.116400 -5.995901
v 14.475387 2.329698 -5.995901
v 15.366987 1.081756 -3.056684
v 15.366987 2.324323 -3.056684
v 15.668045 1.250822 -0.000001
v 15.668045 2.553432 -0.000001
v 15.366989 1.168794 3.056682
v 15.366989 2.575443 3.056682
v 14.475387 1.291709 5.995899
v 14.475387 2.837784 5.995899
v 11.078980 1.683495 11.078980
v 11.078980 3.029089 11.078980
v 8.704700 1.398925 13.027504
v 8.704700 2.748439 13.027504
v 5.995899 1.183592 14.475387
v 5.995899 2.467782 14.475387
v 3.056680 1.214702 15.366989
v 3.056680 2.461007 15.366989
v -0.000005 1.569428 15.668045
v -0.000005 2.968126 15.668045
v -3.056690 1.708882 15.366987
v -3.056690 3.209635 15.366987
v -5.995908 1.302865 14.475383
v -5.995908 2.685954 14.475383
v -8.704706 0.851029 13.027499
v -8.704706 2.000124 13.027499
v -13.027510 0.824349 8.704690
v -13.027510 1.934379 8.704690
v -14.475390 0.991392 5.995890
v -14.475390 2.183699 5.995890
v -15.366991 0.820580 3.056670
v -15.366991 1.994265 3.056670
v -15.668045 0.998925 -0.000015
v -15.668045 2.080004 -0.000015
v -15.366985 0.991681 -3.056700
v -15.366985 2.006112 -3.056700
v -14.475379 1.148582 -5.995917
v -14.475379 2.340317 -5.995917
v -13.027493 1.468200 -8.704715
v -13.027493 2.996347 -8.704715
v -11.078966 2.037474 -11.078994
v -11.078966 3.815039 -11.078994
v -8.704682 1.618971 -13.027514
v -8.704682 3.231169 -13.027514
v -5.995880 1.108484 -14.475394
v -5.995880 2.411234 -14.475394
v -3.056664 1.258019 -15.366993
v -3.056664 2.508790 -15.366993
v 2.953153 4.799982 -12.505970
v 0.476200 4.058812 -12.857582
v -2.020989 3.737220 -12.719678
v -4.437857 4.397616 -12.100344
v -6.679257 5.206655 -11.024761
v -8.690454 4.502689 -9.515173
v -10.366616 4.689600 -7.646337
v -11.640900 4.359963 -5.491548
v -12.468988 3.106317 -3.130783
v -12.820602 2.941917 -0.653828
v -12.682231 3.508923 1.844129
v -12.059192 4.031033 4.267096
v -9.472583 4.094859 8.522058
v -7.608416 4.777404 10.190537
v -5.454562 4.277839 11.463275
v -3.093797 4.263453 12.291363
v -0.616841 4.668537 12.642977
v 4.304083 4.147840 11.881561
v 6.558942 3.939339 10.797796
v 8.559043 4.488358 9.294951
v 10.227523 4.555644 7.430782
v 12.328346 4.458069 2.916163
v 12.679958 4.343212 0.439206
v 12.541584 4.420417 -2.058752
v 11.918541 4.477971 -4.481717
v 10.834771 3.432058 -6.736574
v 9.331925 3.741731 -8.736674
v 7.467756 4.709636 -10.405153
v 2.953153 3.875290 -12.505971
v 0.476200 3.088822 -12.857583
v -2.017503 2.693032 -12.721797
v -4.414091 3.224921 -12.114792
v -6.639438 4.031188 -11.048965
v -8.668174 3.473526 -9.528717
v -10.363873 3.686548 -7.648005
v -11.640900 3.279792 -5.491548
v -12.468988 2.101826 -3.130784
v -12.820602 2.035775 -0.653829
v -12.682231 2.510607 1.844129
v -12.059192 2.878735 4.267095
v -9.472583 2.811909 8.522058
v -7.608416 3.340702 10.190537
v -5.454562 2.797192 11.463275
v -3.093797 2.774808 12.291363
v -0.616841 3.108427 12.642977
v 4.304084 2.797475 11.881561
v 6.558942 2.798875 10.797796
v 8.559043 3.359919 9.294951
v 10.227523 3.181011 7.430782
v 12.328346 2.847685 2.916163
v 12.679957 2.774497 0.439206
v 12.541584 2.903295 -2.058752
v 11.918541 3.111180 -4.481717
v 10.834771 2.344271 -6.736576
v 9.331925 2.773370 -8.736674
v 7.467756 3.699347 -10.405153
v 4.630661 -0.539536 17.408541
v 0.896947 0.577691 17.938555
v -2.867270 1.062453 17.730680
v -6.510413 0.066982 16.797108
v -9.889058 -1.152547 15.175796
v -12.920701 -0.091403 12.900270
v -15.447317 -0.373148 10.083221
v -17.368149 0.123739 6.835131
v -18.616394 2.013462 3.276559
v -19.146410 2.261274 -0.457158
v -18.937830 1.406580 -4.222534
v -17.998674 0.619561 -7.874868
v -14.099667 0.523349 -14.288722
v -11.289655 -0.505508 -16.803757
v -8.042976 0.247528 -18.722258
v -4.484402 0.269213 -19.970503
v -0.750684 -0.341404 -20.500519
v 6.667028 0.443484 -19.352777
v 10.065961 0.757777 -17.719128
v 13.080876 -0.069805 -15.453767
v 15.595913 -0.171230 -12.643754
v 18.762655 -0.024145 -5.838497
v 19.292667 0.148989 -2.104778
v 19.084085 0.032611 1.660599
v 18.144922 -0.054144 5.312932
v 16.511265 1.522446 8.711862
v 14.245905 1.055652 11.726776
v 11.435890 -0.403350 14.241809
v 4.630660 0.854327 17.408543
v 0.896947 2.039834 17.938557
v -2.862015 2.636442 17.733875
v -6.474587 1.834682 16.818886
v -9.829036 0.619330 15.212281
v -12.887116 1.459940 12.920684
v -15.443180 1.138833 10.085733
v -17.368149 1.751969 6.835131
v -18.616394 3.527612 3.276559
v -19.146410 3.627177 -0.457158
v -18.937830 2.911423 -4.222534
v -17.998674 2.356513 -7.874868
v -14.099667 2.457244 -14.288722
v -11.289655 1.660151 -16.803757
v -8.042976 2.479428 -18.722258
v -4.484402 2.513168 -19.970503
v -0.750684 2.010278 -20.500519
v 6.667029 2.479001 -19.352777
v 10.065961 2.476892 -17.719128
v 13.080876 1.631184 -15.453767
v 15.595913 1.900866 -12.643754
v 18.762655 2.403318 -5.838497
v 19.292665 2.513639 -2.104778
v 19.084085 2.319493 1.660598
v 18.144922 2.006132 5.312932
v 16.511265 3.162158 8.711864
v 14.245905 2.515341 11.726776
v 11.435890 1.119541 14.241809
vt 0.851580 0.254194
vt 0.851580 0.677682
vt 0.775465 0.537814
vt 0.775465 0.211979
vt 0.688763 0.426307
vt 0.688763 0.169905
vt 0.594808 0.220454
vt 0.594808 0.526494
vt 0.497209 0.221298
vt 0.497209 0.571402
vt 0.399718 0.569855
vt 0.399718 0.211305
vt 0.306080 0.260094
vt 0.306080 0.635970
vt 0.219894 0.642325
vt 0.219894 0.236428
vt 0.144473 0.271900
vt 0.036992 0.384958
vt 0.036992 0.773237
vt 0.009063 0.692257
vt 0.009063 0.302847
vt 0.000000 0.611273
vt 0.000000 0.240713
vt 0.010152 0.249691
vt 0.010152 0.609320
vt 0.039128 0.352050
vt 0.039128 0.755653
vt 0.085816 0.392290
vt 0.085816 0.825341
vt 0.148420 0.674228
vt 0.148420 0.275129
vt 0.224536 0.476326
vt 0.405192 0.137044
vt 0.405192 0.457349
vt 0.502791 0.185241
vt 0.502791 0.529289
vt 0.600283 0.474622
vt 0.600283 0.135949
vt 0.693921 0.187408
vt 0.693921 0.499360
vt 0.780106 0.478034
vt 0.780106 0.185313
vt 0.855527 0.230584
vt 0.855527 0.574466
vt 0.917286 0.322808
vt 0.917286 0.763764
vt 0.963008 0.487073
vt 0.963008 1.000000
vt 0.990937 0.831518
vt 0.990937 0.366309
vt 1.000000 0.594919
vt 0.989848 0.262151
vt 0.989848 0.623069
vt 0.960872 0.569712
vt 1.000000 0.219003
vt 0.707284 0.710393
vt 0.677581 0.678082
vt 0.677581 0.210174
vt 0.054043 0.669230
vt 0.024417 0.497015
vt 0.053760 0.280897
vt 0.380617 0.859167
vt 0.350931 0.609332
vt 0.380617 0.394341
vt 0.944873 0.570705
vt 0.915181 0.848849
vt 0.915181 0.553341
vt 0.588474 0.738887
vt 0.558774 0.537495
vt 0.588474 0.416162
vt 0.261883 0.468526
vt 0.232202 0.354268
vt 0.261883 0.190367
vt 0.855790 0.860564
vt 0.826092 0.485588
vt 0.855790 0.490882
vt 0.202521 0.329995
vt 0.172840 0.752895
vt 0.172840 0.359317
vt 0.796391 0.078357
vt 0.796391 0.389350
vt 0.766690 0.343201
vt 0.469686 0.780316
vt 0.439994 0.652211
vt 0.469686 0.288020
vt 0.143158 0.751428
vt 0.113350 0.620275
vt 0.143158 0.482184
vt 0.736987 0.675611
vt 0.736987 0.224723
vt 0.083766 0.960681
vt 0.082378 0.581534
vt 0.410304 0.637735
vt 0.974563 0.497015
vt 0.944873 0.266680
vt 0.618175 0.688889
vt 0.291565 0.690145
vt 0.291565 0.284957
vt 0.529076 0.627743
vt 0.529076 0.212481
vt 0.202521 0.042189
vt 0.826092 0.223392
vt 0.766690 0.812705
vt 0.410304 0.172645
vt 0.144473 0.718029
vt 0.224536 0.144748
vt 0.350931 0.216183
vt 0.960872 0.208984
vt 0.707284 0.193705
vt 0.558774 0.196869
vt 0.232202 0.073430
vt 0.439994 0.204640
vt 0.113128 0.304105
vt 0.974563 0.193478
vt 0.618175 0.270688
vt 0.024417 0.193478
vn 0.471397 0.000000 -0.881921
vn 0.634393 0.000000 -0.773010
vn 0.773010 0.000000 -0.634393
vn 0.881921 0.000000 -0.471397
vn 0.956940 0.000000 -0.290284
vn 0.995185 0.000000 -0.098017
vn 0.995185 0.000000 0.098017
vn 0.956940 0.000000 0.290285
vn 0.634394 0.000000 0.773010
vn 0.471396 0.000000 0.881921
vn 0.290285 0.000000 0.956940
vn 0.098017 0.000000 0.995185
vn -0.098017 0.000000 0.995185
vn -0.290285 0.000000 0.956940
vn -0.471397 0.000000 0.881921
vn -0.881922 0.000000 0.471396
vn -0.956941 0.000000 0.290284
vn -0.995185 0.000000 0.098016
vn -0.995185 -0.000000 -0.098018
vn -0.956940 -0.000000 -0.290286
vn -0.881921 -0.000000 -0.471398
vn -0.773009 -0.000000 -0.634394
vn -0.634393 -0.000000 -0.773011
vn -0.471395 -0.000000 -0.881922
vn -0.098016 -0.000000 -0.995185
vn -0.290284 -0.000000 -0.956941
vn 0.990074 -0.000000 0.140544
vn -0.246447 0.006946 -0.969131
vn -0.666915 0.000000 0.745134
vn 0.140544 0.000001 -0.990074
vn 0.600708 0.000000 0.799468
vn -0.998469 0.000000 0.055309
vn 0.666914 0.000000 -0.745134
vn -0.943631 0.000000 -0.330999
vn 0.901299 0.000001 -0.433198
vn -0.140545 0.000000 0.990074
vn -0.744486 -0.000926 -0.667638
vn 0.998469 0.000000 -0.055310
vn -0.431471 0.003959 -0.902118
vn -0.508731 0.000000 0.860925
vn -0.055140 0.000001 -0.998479
vn 0.745134 -0.000000 0.666915
vn -0.968494 -0.000000 0.249038
vn 0.433196 0.000000 0.901300
vn -0.990074 0.000000 -0.140545
vn 0.799468 0.000000 -0.600709
vn -0.860444 -0.000000 -0.509544
vn 0.968493 0.000000 -0.249039
vn -0.599442 -0.003825 -0.800409
vn -0.330998 0.000000 0.943631
vn 0.990074 0.000000 -0.140544
vn -0.246447 -0.006945 0.969131
vn -0.666915 0.000000 -0.745134
vn 0.140544 -0.000001 0.990074
vn 0.600708 0.000000 -0.799468
vn -0.998469 0.000000 -0.055309
vn 0.666914 0.000000 0.745135
vn -0.943631 0.000000 0.330999
vn 0.901298 0.000000 0.433199
vn -0.140545 0.000000 -0.990074
vn -0.744486 0.000928 0.667638
vn 0.998469 0.000000 0.055310
vn -0.431471 -0.003960 0.902118
vn -0.508731 -0.000000 -0.860925
vn -0.055140 -0.000001 0.998479
vn 0.745134 0.000000 -0.666915
vn -0.968494 0.000000 -0.249037
vn 0.433197 -0.000000 -0.901299
vn -0.990074 -0.000000 0.140545
vn 0.799468 0.000000 0.600708
vn -0.860444 0.000000 0.509545
vn 0.968494 0.000000 0.249039
vn -0.599442 0.003824 0.800409
vn -0.330999 -0.000000 -0.943631
vn 0.990074 -0.000001 0.140544
vn -0.860650 0.001509 0.509195
vn -0.743084 -0.007281 -0.669159
vn 0.998469 -0.000001 -0.055310
vn -0.431259 0.002376 -0.902225
vn -0.054663 0.001844 -0.998503
vn -0.860650 -0.001507 -0.509195
vn 0.433197 0.000000 0.901299
vn 0.799468 0.000001 -0.600709
vn -0.599240 -0.002437 -0.800566
vn 0.990075 0.000001 -0.140543
vn 0.901299 0.000000 -0.433198
vn 0.901298 -0.000001 0.433199
vn -0.743084 0.007281 0.669159
vn 0.998469 0.000001 0.055309
vn -0.431258 -0.002375 0.902225
vn -0.054663 -0.001844 0.998503
vn 0.799468 -0.000001 0.600708
vn -0.245286 0.001148 -0.969450
vn 0.968493 0.000000 0.249039
vn -0.599240 0.002438 0.800566
vn -0.245287 -0.001149 0.969450
s off
f 3/1/1 4/2/1 6/3/1
f 5/4/2 6/3/2 8/5/2
f 7/6/3 8/5/3 9/7/3
f 9/7/4 10/8/4 11/9/4
f 11/9/5 12/10/5 14/11/5
f 13/12/6 14/11/6 15/13/6
f 15/13/7 16/14/7 18/15/7
f 17/16/8 18/15/8 19/17/8
f 21/18/9 22/19/9 24/20/9
f 23/21/10 24/20/10 26/22/10
f 25/23/11 26/22/11 27/24/11
f 27/24/12 28/25/12 29/26/12
f 29/26/13 30/27/13 31/28/13
f 31/28/14 32/29/14 34/30/14
f 33/31/15 34/30/15 36/32/15
f 37/33/16 38/34/16 39/35/16
f 39/35/17 40/36/17 42/37/17
f 41/38/18 42/37/18 43/39/18
f 43/39/19 44/40/19 46/41/19
f 45/42/20 46/41/20 47/43/20
f 47/43/21 48/44/21 49/45/21
f 49/45/22 50/46/22 51/47/22
f 51/47/23 52/48/23 54/49/23
f 53/50/24 54/49/24 56/51/24
f 57/52/25 58/53/25 2/54/25
f 55/55/26 56/51/26 57/52/26
f 81/56/27 80/57/27 108/58/27
f 62/59/28 61/60/28 90/61/28
f 72/62/29 71/63/29 100/64/29
f 60/65/30 59/66/30 87/67/30
f 78/68/31 77/69/31 106/70/31
f 69/71/32 68/72/32 97/73/32
f 86/74/33 85/75/33 114/76/33
f 67/77/34 66/78/34 94/79/34
f 112/80/35 84/81/35 111/82/35
f 75/83/36 74/84/36 103/85/36
f 65/86/37 64/87/37 93/88/37
f 82/89/38 81/56/38 110/90/38
f 63/91/39 62/59/39 91/92/39
f 73/93/40 72/62/40 100/64/40
f 61/94/41 60/65/41 88/95/41
f 79/96/42 78/68/42 106/70/42
f 70/97/43 69/71/43 98/98/43
f 77/69/44 76/99/44 104/100/44
f 68/72/45 67/77/45 95/101/45
f 85/75/46 84/81/46 113/102/46
f 94/79/47 66/78/47 93/88/47
f 83/103/48 82/89/48 111/82/48
f 64/87/49 63/91/49 91/92/49
f 74/84/50 73/93/50 101/104/50
f 137/56/51 136/57/51 164/58/51
f 118/59/52 117/60/52 146/61/52
f 128/62/53 127/63/53 156/64/53
f 116/65/54 115/66/54 143/67/54
f 134/68/55 133/69/55 162/70/55
f 125/71/56 124/72/56 153/73/56
f 142/74/57 141/75/57 170/76/57
f 123/77/58 122/78/58 150/79/58
f 140/81/59 139/103/59 167/82/59
f 131/83/60 130/84/60 159/85/60
f 121/86/61 120/87/61 149/88/61
f 138/89/62 137/56/62 166/90/62
f 119/91/63 118/59/63 147/92/63
f 129/93/64 128/62/64 156/64/64
f 117/94/65 116/65/65 144/95/65
f 135/96/66 134/68/66 162/70/66
f 126/97/67 125/71/67 154/98/67
f 133/69/68 132/99/68 160/100/68
f 124/72/69 123/77/69 151/101/69
f 141/75/70 140/81/70 169/102/70
f 150/79/71 122/78/71 149/88/71
f 139/103/72 138/89/72 167/82/72
f 120/87/73 119/91/73 147/92/73
f 130/84/74 129/93/74 157/104/74
f 5/4/1 3/1/1 6/3/1
f 7/6/2 5/4/2 8/5/2
f 8/5/3 10/8/3 9/7/3
f 10/8/4 12/10/4 11/9/4
f 13/12/5 11/9/5 14/11/5
f 14/11/6 16/14/6 15/13/6
f 17/16/7 15/13/7 18/15/7
f 18/15/8 20/105/8 19/17/8
f 23/21/9 21/18/9 24/20/9
f 25/23/10 23/21/10 26/22/10
f 26/22/11 28/25/11 27/24/11
f 28/25/12 30/27/12 29/26/12
f 30/27/13 32/29/13 31/28/13
f 33/31/14 31/28/14 34/30/14
f 35/106/15 33/31/15 36/32/15
f 38/34/16 40/36/16 39/35/16
f 41/38/17 39/35/17 42/37/17
f 42/37/18 44/40/18 43/39/18
f 45/42/19 43/39/19 46/41/19
f 46/41/20 48/44/20 47/43/20
f 71/63/29 99/107/29 100/64/29
f 50/46/22 52/48/22 51/47/22
f 53/50/23 51/47/23 54/49/23
f 55/55/24 53/50/24 56/51/24
f 1/108/25 57/52/25 2/54/25
f 56/51/26 58/53/26 57/52/26
f 109/109/75 81/56/75 108/58/75
f 48/44/21 50/46/21 49/45/21
f 69/71/43 97/73/43 98/98/43
f 88/95/30 60/65/30 87/67/30
f 77/69/31 105/110/31 106/70/31
f 68/72/32 96/111/32 97/73/32
f 85/75/33 113/102/33 114/76/33
f 95/101/34 67/77/34 94/79/34
f 122/78/76 121/86/76 149/88/76
f 74/84/36 102/112/36 103/85/36
f 64/87/77 92/113/77 93/88/77
f 81/56/78 109/109/78 110/90/78
f 62/59/79 90/61/79 91/92/79
f 101/104/40 73/93/40 100/64/40
f 89/114/80 61/94/80 88/95/80
f 107/115/42 79/96/42 106/70/42
f 66/78/81 65/86/81 93/88/81
f 105/110/82 77/69/82 104/100/82
f 96/111/45 68/72/45 95/101/45
f 84/81/83 112/80/83 113/102/83
f 82/89/48 110/90/48 111/82/48
f 92/113/84 64/87/84 91/92/84
f 102/112/50 74/84/50 101/104/50
f 165/109/85 137/56/85 164/58/85
f 84/81/86 83/103/86 111/82/86
f 127/63/53 155/107/53 156/64/53
f 144/95/54 116/65/54 143/67/54
f 133/69/55 161/110/55 162/70/55
f 124/72/56 152/111/56 153/73/56
f 141/75/57 169/102/57 170/76/57
f 151/101/58 123/77/58 150/79/58
f 168/80/87 140/81/87 167/82/87
f 130/84/60 158/112/60 159/85/60
f 120/87/88 148/113/88 149/88/88
f 137/56/89 165/109/89 166/90/89
f 118/59/90 146/61/90 147/92/90
f 157/104/64 129/93/64 156/64/64
f 145/114/91 117/94/91 144/95/91
f 163/115/66 135/96/66 162/70/66
f 125/71/67 153/73/67 154/98/67
f 161/110/68 133/69/68 160/100/68
f 152/111/69 124/72/69 151/101/69
f 140/81/92 168/80/92 169/102/92
f 61/60/93 89/116/93 90/61/93
f 138/89/94 166/90/94 167/82/94
f 148/113/95 120/87/95 147/92/95
f 158/112/74 130/84/74 157/104/74
f 117/60/96 145/116/96 146/61/96
